<?xml version="1.0" encoding="UTF-8"?>
<!DOCTYPE svg PUBLIC "-//W3C//DTD SVG 1.1//EN" "http://www.w3.org/Graphics/SVG/1.1/DTD/svg11.dtd">
<!-- Creator: CorelDRAW -->
<svg xmlns="http://www.w3.org/2000/svg" xml:space="preserve" width="200mm" height="200mm" version="1.1" style="shape-rendering:geometricPrecision; text-rendering:geometricPrecision; image-rendering:optimizeQuality; fill-rule:evenodd; clip-rule:evenodd"
viewBox="0 0 19984.81 19984.81"
 xmlns:xlink="http://www.w3.org/1999/xlink"
 xmlns:xodm="http://www.corel.com/coreldraw/odm/2003">
 <defs>
  <style type="text/css">
   <![CDATA[
    .fil0 {fill:lime}
    .fil1 {fill:white}
   ]]>
  </style>
 </defs>
 <g id="Camada_x0020_1">
  <metadata id="CorelCorpID_0Corel-Layer"/>
  <g id="_2630972240480">
   <rect class="fil0" width="19984.81" height="19984.81" rx="2221.03" ry="2221.03"/>
   <path class="fil1" d="M9262.36 5824.09l6088.23 4203.74c425.19,293.58 963.45,432.36 1613.02,412.42 648.44,-16.85 1215.2,-196.96 1698.47,-535.64l-9109.53 -6186.58 -7269.57 4521.75c-526.12,327.25 -840.31,713.73 -936.12,1160.22 -90.73,443.49 74.4,820.8 492.69,1130.61l7744.37 5736.19 5573.81 -3906.27 -6196.47 -4351.54c-501.1,323.97 -789.93,706.62 -860.07,1148.71 -65.31,439.11 118.12,812.71 547.51,1119.54l3105.93 2219.3 -1861.82 1278.2 -5387.24 -3918.35c-209.58,-152.42 -300.38,-339.19 -272.83,-559.91 49.95,-220.72 206.71,-414.37 469.76,-581.17l4559.82 -2891.2z"/>
  </g>
 </g>
</svg>
